<?xml version="1.0" encoding="UTF-8" standalone="no"?>
<!-- Created with Inkscape (http://www.inkscape.org/) -->

<svg xmlns:dc="http://purl.org/dc/elements/1.1/" xmlns:cc="http://creativecommons.org/ns#" xmlns:rdf="http://www.w3.org/1999/02/22-rdf-syntax-ns#" xmlns:svg="http://www.w3.org/2000/svg" xmlns="http://www.w3.org/2000/svg" xmlns:sodipodi="http://sodipodi.sourceforge.net/DTD/sodipodi-0.dtd" xmlns:inkscape="http://www.inkscape.org/namespaces/inkscape" width="79.588mm" height="49.119mm" viewBox="0 0 282 174.05" id="svg2" version="1.1" inkscape:version="0.91 r13725" sodipodi:docname="britishrail.svg">
  <defs id="defs4" />
  <sodipodi:namedview id="base" pagecolor="#ffffff" bordercolor="#666666" borderopacity="1.0" inkscape:pageopacity="0.0" inkscape:pageshadow="2" inkscape:zoom="0.98995" inkscape:cx="139.62" inkscape:cy="-17.52" inkscape:document-units="px" inkscape:current-layer="layer1" showgrid="false" fit-margin-top="0" fit-margin-left="0" fit-margin-right="0" fit-margin-bottom="0" inkscape:window-width="1280" inkscape:window-height="752" inkscape:window-x="0" inkscape:window-y="0" inkscape:window-maximized="1" />
  <metadata id="metadata7">
    <rdf:RDF>
      <cc:Work rdf:about="">
        <dc:format>image/svg+xml</dc:format>
        <dc:type rdf:resource="http://purl.org/dc/dcmitype/StillImage" />
        <dc:title></dc:title>
      </cc:Work>
    </rdf:RDF>
  </metadata>
  <g inkscape:label="Layer 1" inkscape:groupmode="layer" id="layer1" transform="translate(-71.266,-128.24)">
    <path style="fill:#ff0000" d="m 297.74,297.4 c -0.52,-0.45 -21.07,-9.12 -45.67,-19.25 l -44.72,-18.43 70.97,-0.26 70.97,-0.25 0,-13 0,-12.99 -72.25,0 -72.25,-0.1 35.5,-17.89 35.5,-17.89 36.75,-0.1 36.75,0 0,-13 0,-13 -37.34,0 -37.35,0 -41.8,-19.5 -41.79,-19.5 -32.56,0 c -17.91,0 -32.13,0.37 -31.61,0.82 0.52,0.45 21.07,9.12 45.67,19.25 l 44.72,18.43 -70.97,0.26 -70.974,0.25 0,13 0,12.99 72.254,0 72.25,0.1 -35.5,17.89 -35.5,17.89 -36.75,0.1 -36.754,0 0,13 0,13 37.344,0 37.35,0 41.4,19.42 41.41,19.41 32.95,0.1 c 18.12,0 32.52,-0.29 32,-0.74 z" id="path4147" inkscape:connector-curvature="0" sodipodi:nodetypes="cccccccccccccccccccssccccccccccccccccccccc" />
  </g>
</svg>
